<mxfile host="app.diagrams.net" modified="2021-01-18T03:59:03.729Z" agent="5.0 (Windows NT 10.0; Win64; x64) AppleWebKit/537.36 (KHTML, like Gecko) Chrome/87.0.4280.88 Safari/537.36" etag="MxX_pw0wLk7dETnNga5N" version="14.1.9" type="github">
  <diagram id="VAd-3MqmVHpxcqf0sQMY" name="Page-1">
    <mxGraphModel dx="1038" dy="492" grid="1" gridSize="10" guides="1" tooltips="1" connect="1" arrows="1" fold="1" page="1" pageScale="1" pageWidth="827" pageHeight="1169" math="0" shadow="0">
      <root>
        <mxCell id="0" />
        <mxCell id="1" parent="0" />
        <mxCell id="lm7yrq-vaPlxDXEFxrSD-1" value="" style="rounded=1;whiteSpace=wrap;html=1;strokeWidth=2;" vertex="1" parent="1">
          <mxGeometry x="210" y="210" width="90" height="30" as="geometry" />
        </mxCell>
        <mxCell id="lm7yrq-vaPlxDXEFxrSD-6" value="" style="rounded=1;whiteSpace=wrap;html=1;strokeWidth=2;fillColor=#dae8fc;strokeColor=#6c8ebf;" vertex="1" parent="1">
          <mxGeometry x="300" y="210" width="90" height="30" as="geometry" />
        </mxCell>
        <mxCell id="lm7yrq-vaPlxDXEFxrSD-7" value="" style="rounded=1;whiteSpace=wrap;html=1;strokeWidth=2;fillColor=#d5e8d4;strokeColor=#82b366;" vertex="1" parent="1">
          <mxGeometry x="390" y="210" width="90" height="30" as="geometry" />
        </mxCell>
        <mxCell id="lm7yrq-vaPlxDXEFxrSD-8" value="" style="rounded=1;whiteSpace=wrap;html=1;strokeWidth=2;fillColor=#f8cecc;strokeColor=#b85450;" vertex="1" parent="1">
          <mxGeometry x="480" y="210" width="90" height="30" as="geometry" />
        </mxCell>
        <mxCell id="lm7yrq-vaPlxDXEFxrSD-9" value="" style="rounded=1;whiteSpace=wrap;html=1;strokeWidth=2;fillColor=#d5e8d4;strokeColor=#82b366;" vertex="1" parent="1">
          <mxGeometry x="210" y="240" width="90" height="30" as="geometry" />
        </mxCell>
        <mxCell id="lm7yrq-vaPlxDXEFxrSD-10" value="" style="rounded=1;whiteSpace=wrap;html=1;strokeWidth=2;fillColor=#d5e8d4;strokeColor=#82b366;" vertex="1" parent="1">
          <mxGeometry x="300" y="240" width="90" height="30" as="geometry" />
        </mxCell>
        <mxCell id="lm7yrq-vaPlxDXEFxrSD-11" value="" style="rounded=1;whiteSpace=wrap;html=1;strokeWidth=2;fillColor=#dae8fc;strokeColor=#6c8ebf;" vertex="1" parent="1">
          <mxGeometry x="390" y="240" width="90" height="30" as="geometry" />
        </mxCell>
        <mxCell id="lm7yrq-vaPlxDXEFxrSD-12" value="" style="rounded=1;whiteSpace=wrap;html=1;strokeWidth=2;fillColor=#d5e8d4;strokeColor=#82b366;" vertex="1" parent="1">
          <mxGeometry x="480" y="240" width="90" height="30" as="geometry" />
        </mxCell>
        <mxCell id="lm7yrq-vaPlxDXEFxrSD-13" value="" style="rounded=1;whiteSpace=wrap;html=1;strokeWidth=2;fillColor=#dae8fc;strokeColor=#6c8ebf;" vertex="1" parent="1">
          <mxGeometry x="210" y="270" width="90" height="30" as="geometry" />
        </mxCell>
        <mxCell id="lm7yrq-vaPlxDXEFxrSD-14" value="" style="rounded=1;whiteSpace=wrap;html=1;strokeWidth=2;fillColor=#f8cecc;strokeColor=#b85450;" vertex="1" parent="1">
          <mxGeometry x="300" y="270" width="90" height="30" as="geometry" />
        </mxCell>
        <mxCell id="lm7yrq-vaPlxDXEFxrSD-15" value="" style="rounded=1;whiteSpace=wrap;html=1;strokeWidth=2;fillColor=#f8cecc;strokeColor=#b85450;" vertex="1" parent="1">
          <mxGeometry x="390" y="270" width="90" height="30" as="geometry" />
        </mxCell>
        <mxCell id="lm7yrq-vaPlxDXEFxrSD-16" value="" style="rounded=1;whiteSpace=wrap;html=1;strokeWidth=2;fillColor=#f8cecc;strokeColor=#b85450;" vertex="1" parent="1">
          <mxGeometry x="480" y="270" width="90" height="30" as="geometry" />
        </mxCell>
        <mxCell id="lm7yrq-vaPlxDXEFxrSD-17" value="" style="rounded=1;whiteSpace=wrap;html=1;strokeWidth=2;fillColor=#dae8fc;strokeColor=#6c8ebf;" vertex="1" parent="1">
          <mxGeometry x="210" y="300" width="90" height="30" as="geometry" />
        </mxCell>
        <mxCell id="lm7yrq-vaPlxDXEFxrSD-18" value="" style="rounded=1;whiteSpace=wrap;html=1;strokeWidth=2;fillColor=#d5e8d4;strokeColor=#82b366;" vertex="1" parent="1">
          <mxGeometry x="300" y="300" width="90" height="30" as="geometry" />
        </mxCell>
        <mxCell id="lm7yrq-vaPlxDXEFxrSD-19" value="" style="rounded=1;whiteSpace=wrap;html=1;strokeWidth=2;fillColor=#f8cecc;strokeColor=#b85450;" vertex="1" parent="1">
          <mxGeometry x="390" y="300" width="90" height="30" as="geometry" />
        </mxCell>
        <mxCell id="lm7yrq-vaPlxDXEFxrSD-20" value="" style="rounded=1;whiteSpace=wrap;html=1;strokeWidth=2;fillColor=#d5e8d4;strokeColor=#82b366;" vertex="1" parent="1">
          <mxGeometry x="480" y="300" width="90" height="30" as="geometry" />
        </mxCell>
        <mxCell id="lm7yrq-vaPlxDXEFxrSD-21" value="" style="rounded=1;whiteSpace=wrap;html=1;strokeWidth=2;fillColor=#dae8fc;strokeColor=#6c8ebf;" vertex="1" parent="1">
          <mxGeometry x="210" y="210" width="90" height="30" as="geometry" />
        </mxCell>
        <mxCell id="lm7yrq-vaPlxDXEFxrSD-22" value="" style="rounded=1;whiteSpace=wrap;html=1;strokeWidth=2;fillColor=#dae8fc;strokeColor=#6c8ebf;" vertex="1" parent="1">
          <mxGeometry x="300" y="380" width="90" height="30" as="geometry" />
        </mxCell>
        <mxCell id="lm7yrq-vaPlxDXEFxrSD-23" value="" style="rounded=1;whiteSpace=wrap;html=1;strokeWidth=2;fillColor=#d5e8d4;strokeColor=#82b366;" vertex="1" parent="1">
          <mxGeometry x="390" y="380" width="90" height="30" as="geometry" />
        </mxCell>
        <mxCell id="lm7yrq-vaPlxDXEFxrSD-24" value="" style="rounded=1;whiteSpace=wrap;html=1;strokeWidth=2;fillColor=#d5e8d4;strokeColor=#82b366;" vertex="1" parent="1">
          <mxGeometry x="480" y="380" width="90" height="30" as="geometry" />
        </mxCell>
        <mxCell id="lm7yrq-vaPlxDXEFxrSD-25" value="" style="rounded=1;whiteSpace=wrap;html=1;strokeWidth=2;fillColor=#d5e8d4;strokeColor=#82b366;" vertex="1" parent="1">
          <mxGeometry x="300" y="410" width="90" height="30" as="geometry" />
        </mxCell>
        <mxCell id="lm7yrq-vaPlxDXEFxrSD-26" value="" style="rounded=1;whiteSpace=wrap;html=1;strokeWidth=2;fillColor=#dae8fc;strokeColor=#6c8ebf;" vertex="1" parent="1">
          <mxGeometry x="390" y="410" width="90" height="30" as="geometry" />
        </mxCell>
        <mxCell id="lm7yrq-vaPlxDXEFxrSD-27" value="" style="rounded=1;whiteSpace=wrap;html=1;strokeWidth=2;fillColor=#d5e8d4;strokeColor=#82b366;" vertex="1" parent="1">
          <mxGeometry x="480" y="410" width="90" height="30" as="geometry" />
        </mxCell>
        <mxCell id="lm7yrq-vaPlxDXEFxrSD-28" value="" style="rounded=1;whiteSpace=wrap;html=1;strokeWidth=2;fillColor=#dae8fc;strokeColor=#6c8ebf;" vertex="1" parent="1">
          <mxGeometry x="210" y="440" width="90" height="30" as="geometry" />
        </mxCell>
        <mxCell id="lm7yrq-vaPlxDXEFxrSD-29" value="" style="rounded=1;whiteSpace=wrap;html=1;strokeWidth=2;fillColor=#d5e8d4;strokeColor=#82b366;" vertex="1" parent="1">
          <mxGeometry x="390" y="440" width="90" height="30" as="geometry" />
        </mxCell>
        <mxCell id="lm7yrq-vaPlxDXEFxrSD-30" value="" style="rounded=1;whiteSpace=wrap;html=1;strokeWidth=2;fillColor=#d5e8d4;strokeColor=#82b366;" vertex="1" parent="1">
          <mxGeometry x="480" y="440" width="90" height="30" as="geometry" />
        </mxCell>
        <mxCell id="lm7yrq-vaPlxDXEFxrSD-31" value="" style="rounded=1;whiteSpace=wrap;html=1;strokeWidth=2;fillColor=#dae8fc;strokeColor=#6c8ebf;" vertex="1" parent="1">
          <mxGeometry x="210" y="470" width="90" height="30" as="geometry" />
        </mxCell>
        <mxCell id="lm7yrq-vaPlxDXEFxrSD-32" value="" style="rounded=1;whiteSpace=wrap;html=1;strokeWidth=2;fillColor=#d5e8d4;strokeColor=#82b366;" vertex="1" parent="1">
          <mxGeometry x="300" y="470" width="90" height="30" as="geometry" />
        </mxCell>
        <mxCell id="lm7yrq-vaPlxDXEFxrSD-33" value="" style="rounded=1;whiteSpace=wrap;html=1;strokeWidth=2;fillColor=#d5e8d4;strokeColor=#82b366;" vertex="1" parent="1">
          <mxGeometry x="390" y="470" width="90" height="30" as="geometry" />
        </mxCell>
        <mxCell id="lm7yrq-vaPlxDXEFxrSD-34" value="" style="rounded=1;whiteSpace=wrap;html=1;strokeWidth=2;fillColor=#d5e8d4;strokeColor=#82b366;" vertex="1" parent="1">
          <mxGeometry x="480" y="470" width="90" height="30" as="geometry" />
        </mxCell>
        <mxCell id="lm7yrq-vaPlxDXEFxrSD-35" value="" style="rounded=1;whiteSpace=wrap;html=1;strokeWidth=2;fillColor=#dae8fc;strokeColor=#6c8ebf;" vertex="1" parent="1">
          <mxGeometry x="210" y="380" width="90" height="30" as="geometry" />
        </mxCell>
        <mxCell id="lm7yrq-vaPlxDXEFxrSD-36" value="" style="rounded=1;whiteSpace=wrap;html=1;strokeWidth=2;fillColor=#d5e8d4;strokeColor=#82b366;" vertex="1" parent="1">
          <mxGeometry x="210" y="410" width="90" height="30" as="geometry" />
        </mxCell>
        <mxCell id="lm7yrq-vaPlxDXEFxrSD-37" value="" style="rounded=1;whiteSpace=wrap;html=1;strokeWidth=2;fillColor=#d5e8d4;strokeColor=#82b366;" vertex="1" parent="1">
          <mxGeometry x="300" y="440" width="90" height="30" as="geometry" />
        </mxCell>
        <mxCell id="lm7yrq-vaPlxDXEFxrSD-38" value="" style="rounded=1;whiteSpace=wrap;html=1;strokeWidth=2;fillColor=#dae8fc;strokeColor=#6c8ebf;" vertex="1" parent="1">
          <mxGeometry x="235" y="540" width="90" height="30" as="geometry" />
        </mxCell>
        <mxCell id="lm7yrq-vaPlxDXEFxrSD-39" value="存活" style="text;html=1;strokeColor=none;fillColor=none;align=center;verticalAlign=middle;whiteSpace=wrap;rounded=0;" vertex="1" parent="1">
          <mxGeometry x="260" y="545" width="40" height="20" as="geometry" />
        </mxCell>
        <mxCell id="lm7yrq-vaPlxDXEFxrSD-42" value="可清除" style="rounded=1;whiteSpace=wrap;html=1;strokeWidth=2;fillColor=#f8cecc;strokeColor=#b85450;" vertex="1" parent="1">
          <mxGeometry x="325" y="540" width="90" height="30" as="geometry" />
        </mxCell>
        <mxCell id="lm7yrq-vaPlxDXEFxrSD-43" value="未使用" style="rounded=1;whiteSpace=wrap;html=1;strokeWidth=2;fillColor=#d5e8d4;strokeColor=#82b366;" vertex="1" parent="1">
          <mxGeometry x="415" y="540" width="90" height="30" as="geometry" />
        </mxCell>
        <mxCell id="lm7yrq-vaPlxDXEFxrSD-44" value="&lt;font style=&quot;font-size: 14px&quot;&gt;&lt;b&gt;回收前状态&lt;/b&gt;&lt;/font&gt;" style="text;html=1;strokeColor=none;fillColor=none;align=center;verticalAlign=middle;whiteSpace=wrap;rounded=0;" vertex="1" parent="1">
          <mxGeometry x="110" y="260" width="80" height="20" as="geometry" />
        </mxCell>
        <mxCell id="lm7yrq-vaPlxDXEFxrSD-45" value="&lt;font style=&quot;font-size: 14px&quot;&gt;&lt;b&gt;回收后状态&lt;/b&gt;&lt;/font&gt;" style="text;html=1;strokeColor=none;fillColor=none;align=center;verticalAlign=middle;whiteSpace=wrap;rounded=0;" vertex="1" parent="1">
          <mxGeometry x="110" y="440" width="80" height="20" as="geometry" />
        </mxCell>
      </root>
    </mxGraphModel>
  </diagram>
</mxfile>
